<?xml version="1.0" encoding="UTF-8"?>
<svg xmlns="http://www.w3.org/2000/svg" viewBox="0 0 60 60" width="60" height="60">
  <!-- Gear icon for styles/stylesheet -->
  <path d="M30 18 a12 12 0 1 0 0 24 a12 12 0 1 0 0-24z" fill="none" stroke="#555" stroke-width="3"/>
  <circle cx="30" cy="30" r="5" fill="#555"/>
  <!-- Gear teeth -->
  <rect x="27" y="4" width="6" height="10" rx="2" fill="#555"/>
  <rect x="27" y="46" width="6" height="10" rx="2" fill="#555"/>
  <rect x="4" y="27" width="10" height="6" rx="2" fill="#555"/>
  <rect x="46" y="27" width="10" height="6" rx="2" fill="#555"/>
  <rect x="10.5" y="8.5" width="6" height="10" rx="2" fill="#555" transform="rotate(45 13.5 13.5)"/>
  <rect x="43.5" y="41.5" width="6" height="10" rx="2" fill="#555" transform="rotate(45 46.5 46.5)"/>
  <rect x="41.5" y="10.5" width="10" height="6" rx="2" fill="#555" transform="rotate(45 46.5 13.5)"/>
  <rect x="8.5" y="43.5" width="10" height="6" rx="2" fill="#555" transform="rotate(45 13.5 46.5)"/>
</svg>
